<svg xmlns="http://www.w3.org/2000/svg" viewBox="0 0 400 260" width="400" height="260" role="img" aria-label="Futon listing photo placeholder" preserveAspectRatio="xMidYMid slice">
  <defs>
    <linearGradient id="bg" x1="0" y1="0" x2="1" y2="1">
      <stop offset="0" stop-color="#3F5B4A"/>
      <stop offset="1" stop-color="#22342A"/>
    </linearGradient>
  </defs>
  <rect width="400" height="260" fill="url(#bg)"/>
  <g opacity="0.07" stroke="#FFFFFF" stroke-width="1">
    <line x1="-60" y1="260" x2="60" y2="0"/>
    <line x1="0" y1="260" x2="120" y2="0"/>
    <line x1="60" y1="260" x2="180" y2="0"/>
    <line x1="120" y1="260" x2="240" y2="0"/>
    <line x1="180" y1="260" x2="300" y2="0"/>
    <line x1="240" y1="260" x2="360" y2="0"/>
    <line x1="300" y1="260" x2="420" y2="0"/>
    <line x1="360" y1="260" x2="480" y2="0"/>
    <line x1="420" y1="260" x2="540" y2="0"/>
  </g>
  <g transform="translate(150,80) scale(1.0)" fill="none" stroke="#8FD6A8" stroke-width="3.5" stroke-linecap="round" stroke-linejoin="round">
    <path d="M24 50V40a6 6 0 0 1 12 0v10"/><path d="M64 50V40a6 6 0 0 1 12 0v10"/><rect x="24" y="48" width="52" height="20" rx="5"/><line x1="32" y1="68" x2="32" y2="76"/><line x1="68" y1="68" x2="68" y2="76"/>
  </g>
  <rect x="0" y="212" width="400" height="48" fill="#0E1F33" opacity="0.55"/>
  <text x="20" y="242" font-family="Inter, -apple-system, Segoe UI, Roboto, sans-serif" font-size="18" font-weight="600" fill="#FFFFFF" opacity="0.92">Futon</text>
  <circle cx="376" cy="228" r="6" fill="#8FD6A8"/>
</svg>
